<svg class="svg-icon nav-ecommerce__icon--minicart">
    <use href="#svg-icon-cart">
        <svg id="svg-icon-cart" viewBox="0 0 32 32">
            <title>Icon Cart</title>
            <g>
                <path fill="currentColor" d="M31.8,6.8c-0.2-0.3-0.5-0.4-0.9-0.4L7.2,6.8L6.6,3.4C6.5,2.9,6,2.5,5.5,2.5H1.1C0.5,2.5,0,3,0,3.6s0.5,1.1,1.1,1.1h3.6                 l3.3,16.6c0,0.1,0,0.1,0.1,0.2c0.1,0.5,0.5,0.8,1,0.8h19.1c0.6,0,1.1-0.5,1.1-1.1c0-0.6-0.5-1.1-1.1-1.1h-6.2l6.8-1.1                 c0.4-0.1,0.8-0.4,0.9-0.8L32,7.7C32,7.4,32,7.1,31.8,6.8z M27.7,17L9.8,19.8L7.7,8.9l21.9-0.3L27.7,17z"></path><path fill="currentColor" d="M11.2,23.3c-1.7,0-3.1,1.4-3.1,3.1c0,1.7,1.4,3.1,3.1,3.1s3.1-1.4,3.1-3.1C14.3,24.7,12.9,23.3,11.2,23.3z M11.2,27.3                 c-0.5,0-1-0.4-1-0.9c0-0.5,0.4-1,1-1s1,0.4,1,1C12.2,26.9,11.7,27.3,11.2,27.3z"></path><path fill="currentColor" d="M24.7,23.3c-1.7,0-3.1,1.4-3.1,3.1c0,1.7,1.4,3.1,3.1,3.1c1.7,0,3.1-1.4,3.1-3.1C27.8,24.7,26.4,23.3,24.7,23.3z                  M24.7,27.3c-0.5,0-1-0.4-1-0.9c0-0.5,0.4-1,1-1c0.5,0,0.9,0.4,0.9,1C25.6,26.9,25.2,27.3,24.7,27.3z">
                </path>
            </g>
        </svg>
    </use>
</svg>