<svg class="svg-icon nav-ecommerce__icon--wishlist">
    <use href="#svg-icon-wishlist-outline">
        <svg id="svg-icon-wishlist-outline" viewBox="0 0 32 32">
            <title>Wishlist Outline</title>
            <path fill="currentColor" d="M29.4,4.6c-1.7-1.8-4-2.9-6.5-2.9c-1.9,0-3.6,0.6-5.2,1.8c-0.6,0.5-1.2,1-1.7,1.7c-0.5-0.6-1.1-1.2-1.7-1.7             c-1.5-1.2-3.3-1.8-5.2-1.8c-2.5,0-4.9,1-6.6,2.8C0.9,6.4,0,8.8,0,11.5c0,2.7,1,5.2,3.2,7.9c1.9,2.3,4.6,4.6,7.8,7.3             c1,0.9,2.3,1.9,3.5,3c0.4,0.4,0.9,0.6,1.5,0.6c0.5,0,1.1-0.2,1.5-0.6c1.3-1.1,2.5-2.2,3.5-3c3.2-2.7,5.9-5,7.8-7.3             c2.2-2.6,3.2-5.1,3.2-7.9C32,8.9,31.1,6.4,29.4,4.6z M26.7,17.7c-1.8,2.1-4.4,4.4-7.5,7c-0.9,0.7-2.1,1.7-3.3,2.8             c-1.2-1-2.3-2-3.2-2.8l0,0c-3-2.6-5.7-4.9-7.4-7c-1.8-2.1-2.6-4-2.6-6.1c0-2,0.7-3.8,1.9-5.1c1.2-1.3,2.8-2,4.6-2             c1.3,0,2.5,0.4,3.5,1.2c0.9,0.7,1.6,1.7,2,2.3c0.3,0.5,0.8,0.8,1.4,0.8c0.6,0,1.1-0.3,1.4-0.8c0.4-0.7,1.1-1.6,2-2.3             c1-0.8,2.2-1.2,3.5-1.2c1.8,0,3.4,0.7,4.6,2c1.2,1.3,1.9,3.1,1.9,5.1C29.3,13.6,28.5,15.5,26.7,17.7z">
            </path>
        </svg>
    </use>
</svg>