<svg class="svg-icon nav-ecommerce__icon">
    <use href="#svg-icon-search">
        <svg id="svg-icon-search" viewBox="0 0 32 32">
            <title>Search</title>
            <path fill="currentColor" d="M31.6,29L20.4,18.1c1.3-1.8,1.9-4,1.9-6.3c0-3-1.2-5.8-3.3-7.9c-2.1-2.1-4.9-3.3-7.9-3.3c-3,0-5.8,1.2-7.9,3.3             C1.2,6,0,8.8,0,11.8s1.2,5.8,3.3,7.9c2.1,2.1,4.9,3.3,7.9,3.3c2.8,0,5.4-1,7.4-2.8L29.6,31c0.3,0.3,0.6,0.4,1,0.4             c0.4,0,0.7-0.1,1-0.4C32.1,30.4,32.1,29.5,31.6,29z M11.2,20.2c-4.6,0-8.4-3.8-8.4-8.4c0-4.6,3.8-8.4,8.4-8.4             c4.6,0,8.4,3.8,8.4,8.4C19.5,16.4,15.8,20.2,11.2,20.2z">
            </path>
        </svg>
    </use>
</svg>