<svg class="svg-icon nav-ecommerce__icon--account">
    <use href="#svg-icon-account">
        <svg id="svg-icon-account" viewBox="0 0 32 32">
            <title>Account</title>
            <path fill="currentColor" d="M27.3,4.7c-3-3-7-4.7-11.3-4.7C11.7,0,7.7,1.7,4.7,4.7c-3,3-4.7,7-4.7,11.3c0,4.8,2.2,9.4,5.9,12.4c1.4,1.1,3,2,4.6,2.6             c1.7,0.6,3.6,1,5.5,1c1.9,0,3.7-0.3,5.5-1c1.7-0.6,3.2-1.5,4.6-2.6C29.8,25.4,32,20.8,32,16C32,11.7,30.3,7.7,27.3,4.7z M20.6,28.8             L20.6,28.8c-1.5,0.5-3.1,0.8-4.6,0.8c-1.6,0-3.2-0.3-4.6-0.8c-1.4-0.5-2.8-1.3-4-2.2c0.7-1.5,1.8-2.8,3.1-3.8             c1.6-1.1,3.5-1.7,5.5-1.7l0,0c2,0,3.9,0.6,5.5,1.7c1.4,1,2.4,2.3,3.1,3.8C23.4,27.6,22.1,28.3,20.6,28.8z M11.6,14.4             c0-2.4,2-4.4,4.4-4.4c2.4,0,4.4,2,4.4,4.4c0,2.4-2,4.4-4.4,4.4C13.6,18.7,11.6,16.8,11.6,14.4z M26.4,24.9c-0.9-1.6-2.1-2.9-3.5-4             c-0.8-0.6-1.6-1-2.5-1.4c1.5-1.3,2.4-3.2,2.4-5.2c0-3.7-3-6.7-6.7-6.7s-6.7,3-6.7,6.7c0,2,0.9,3.9,2.4,5.2             c-0.9,0.4-1.8,0.8-2.5,1.4c-1.5,1-2.7,2.4-3.5,4c-2.1-2.5-3.3-5.6-3.3-8.9c0-3.6,1.4-7.1,4-9.6c2.6-2.6,6-4,9.6-4             c3.6,0,7.1,1.4,9.6,4c2.6,2.6,4,6,4,9.6C29.6,19.3,28.5,22.4,26.4,24.9z">
            </path>
        </svg>
    </use>
</svg>